<svg width="40" height="40" viewBox="0 0 24 24" fill="none" xmlns="http://www.w3.org/2000/svg">
  <!-- Open Folder / Document / Laptop Base -->
  <path d="M4 18H20C21.1 18 22 17.1 22 16V6C22 4.9 21.1 4 20 4H4C2.9 4 2 4.9 2 6V16C2 17.1 2.9 18 4 18Z" stroke="#bfa36a" stroke-width="1.2" stroke-linecap="round" stroke-linejoin="round"/>
  
  <!-- Divider line (if it's a laptop/folder) -->
  <path d="M2 16H22" stroke="#bfa36a" stroke-width="1.2"/>
  
  <!-- Stamp Icon -->
  <path d="M16 8V6H14V8C14 9.1 14.9 10 16 10H14C12.9 10 12 9.1 12 8" stroke="#bfa36a" stroke-width="1.2" stroke-linecap="round"/>
  <path d="M15 10V13" stroke="#bfa36a" stroke-width="1.2"/>
  <rect x="13" y="13" width="4" height="2" rx="0.5" stroke="#bfa36a" stroke-width="1.2"/>
  
  <!-- Text lines on left -->
  <line x1="5" y1="7" x2="10" y2="7" stroke="#bfa36a" stroke-width="1.2" stroke-linecap="round"/>
  <line x1="5" y1="10" x2="10" y2="10" stroke="#bfa36a" stroke-width="1.2" stroke-linecap="round"/>
  <line x1="5" y1="13" x2="8" y2="13" stroke="#bfa36a" stroke-width="1.2" stroke-linecap="round"/>

  <!-- Simplified Stamp representation based on image -->
  <!-- Re-doing stamp to match image better: Stamp handle and base sitting on document -->
  <path d="M17 11V13" stroke="#bfa36a" stroke-width="1.2"/> 
  <path d="M15 13H19" stroke="#bfa36a" stroke-width="1.2"/>
  <path d="M17 11C18 11 18.5 10 18.5 9C18.5 8 18 7.5 17 7.5H17C16 7.5 15.5 8 15.5 9C15.5 10 16 11 17 11Z" stroke="#bfa36a" stroke-width="1.2"/>
  
</svg>
