<svg width="40" height="40" viewBox="0 0 24 24" fill="none" xmlns="http://www.w3.org/2000/svg">
  <!-- Front Person (Modern/Shirt) -->
  <path d="M7 20V15C7 14.45 7.45 14 8 14H12C12.55 14 13 14.45 13 15V20" stroke="#bfa36a" stroke-width="1.2" stroke-linecap="round"/>
  <circle cx="10" cy="11" r="2.5" stroke="#bfa36a" stroke-width="1.2"/>
  <path d="M10 14V20" stroke="#bfa36a" stroke-width="1.2"/> <!-- Shirt line -->
  
  <!-- Back Person (Traditional/Kandura) -->
  <path d="M14 13V19" stroke="#bfa36a" stroke-width="1.2" stroke-linecap="round"/>
  <path d="M14 13C14 12 15 11 16.5 11C18 11 19 12 19 13V19" stroke="#bfa36a" stroke-width="1.2"/>
  
  <!-- Ghutra/Headpiece details -->
  <path d="M15 8C15 8 15 6 16.5 6C18 6 18 8 18 8" stroke="#bfa36a" stroke-width="1.2"/>
  <circle cx="16.5" cy="8.5" r="2" stroke="#bfa36a" stroke-width="1.2"/>
  <path d="M18.5 8.5C18.5 8.5 20 9 20 11" stroke="#bfa36a" stroke-width="1.2"/> <!-- Headscarf side -->
  
</svg>
