<svg width="40" height="40" viewBox="0 0 24 24" fill="none" xmlns="http://www.w3.org/2000/svg">
  <!-- Top Arrow (Left) -->
  <path d="M11 6L3 10L11 14V11H16V9H11V6Z" stroke="#bfa36a" stroke-width="1.2" stroke-linecap="round" stroke-linejoin="round"/>
  
  <!-- Top Dollar Coin -->
  <circle cx="19" cy="10" r="3.5" stroke="#bfa36a" stroke-width="1.2"/>
  <path d="M19 8V12" stroke="#bfa36a" stroke-width="1.2"/>
  <path d="M20 9C20 8.5 19.5 8.5 19 8.5C18.5 8.5 18 9 18 9.5C18 10.5 20 10.5 20 11.5C20 12 19.5 12.5 19 12.5C18.5 12.5 18 12 18 11.5" stroke="#bfa36a" stroke-width="1.2" stroke-linecap="round"/>

  <!-- Bottom Arrow (Right) -->
  <path d="M13 18L21 14L13 10V13H8V15H13V18Z" stroke="#bfa36a" stroke-width="1.2" stroke-linecap="round" stroke-linejoin="round"/>

  <!-- Bottom Dollar Coin -->
  <circle cx="5" cy="14" r="3.5" stroke="#bfa36a" stroke-width="1.2"/>
  <path d="M5 12V16" stroke="#bfa36a" stroke-width="1.2"/>
  <path d="M6 13C6 12.5 5.5 12.5 5 12.5C4.5 12.5 4 13 4 13.5C4 14.5 6 14.5 6 15.5C6 16 5.5 16.5 5 16.5C4.5 16.5 4 16 4 15.5" stroke="#bfa36a" stroke-width="1.2" stroke-linecap="round"/>

</svg>
