<svg width="40" height="40" viewBox="0 0 24 24" fill="none" xmlns="http://www.w3.org/2000/svg">
  <!-- Scroll Paper -->
  <path d="M16 2H6C4.9 2 4 2.9 4 4V20C4 21.1 4.9 22 6 22H18C19.1 22 20 21.1 20 20V6L16 2Z" stroke="#bfa36a" stroke-width="1.2" stroke-linecap="round" stroke-linejoin="round"/>
  
  <!-- Curved top right corner (scroll effect) -->
  <path d="M16 2V6H20" stroke="#bfa36a" stroke-width="1.2" stroke-linejoin="round"/>
  
  <!-- Bottom curl effect -->
  <path d="M6 22C4.9 22 4 21.1 4 20H18C19.1 20 20 20.9 20 22" stroke="#bfa36a" stroke-width="1.2"/> 
  
  <!-- Lines on paper -->
  <line x1="8" y1="8" x2="16" y2="8" stroke="#bfa36a" stroke-width="1.2" stroke-linecap="round"/>
  <line x1="8" y1="11" x2="16" y2="11" stroke="#bfa36a" stroke-width="1.2" stroke-linecap="round"/>
  <line x1="8" y1="14" x2="13" y2="14" stroke="#bfa36a" stroke-width="1.2" stroke-linecap="round"/>

  <!-- Pen -->
  <path d="M14.5 13.5L18.5 9.5" stroke="#bfa36a" stroke-width="1.2" stroke-linecap="round"/>
  <path d="M18.5 9.5L20 8L21 9L19.5 10.5L18.5 9.5Z" stroke="#bfa36a" stroke-width="1.2"/>
  <path d="M14.5 13.5L13 15L12 16L14 15L15.5 13.5" stroke="#bfa36a" stroke-width="1.2"/>
  
  <!-- Redoing pen to be diagonal across the paper as per image style usually -->
  <!-- Simple diagonal pen overlay -->
  <rect x="5.63604" y="16.364" width="10" height="2" rx="1" transform="rotate(-45 5.63604 16.364)" fill="white" stroke="#bfa36a" stroke-width="1.2"/>
  <path d="M6.34315 15.6569L4.92893 17.0711L3.51472 18.4853L6.34315 19.8995L7.75736 18.4853L21 5" stroke="none"/> <!-- Hide construction path -->
  
  <!-- Let's make a cleaner pen matching the image: Floating diagonal pen writing -->
  <path d="M7 16L5 20L9 18" stroke="#bfa36a" stroke-width="1.2" stroke-linecap="round" stroke-linejoin="round"/> <!-- Pen tip -->
  <path d="M7 16L17 6" stroke="#bfa36a" stroke-width="1.2" stroke-linecap="round"/> <!-- Pen body -->
  <path d="M15 4L19 8" stroke="#bfa36a" stroke-width="1.2" stroke-linecap="round"/> <!-- Pen cap area -->
  <path d="M17 6L19 8" stroke="#bfa36a" stroke-width="1.2"/> <!-- End cap connection -->


</svg>
